<?xml version="1.0" encoding="UTF-8" standalone="no"?>
<!-- Created with Inkscape (http://www.inkscape.org/) -->

<svg
   xmlns:dc="http://purl.org/dc/elements/1.1/"
   xmlns:cc="http://creativecommons.org/ns#"
   xmlns:rdf="http://www.w3.org/1999/02/22-rdf-syntax-ns#"
   xmlns:svg="http://www.w3.org/2000/svg"
   xmlns="http://www.w3.org/2000/svg"
   xmlns:sodipodi="http://sodipodi.sourceforge.net/DTD/sodipodi-0.dtd"
   xmlns:inkscape="http://www.inkscape.org/namespaces/inkscape"
   width="20"
   height="20"
   viewBox="0 0 20.000001 20.000001"
   id="svg7764"
   version="1.1"
   inkscape:version="0.91 r13725"
   sodipodi:docname="github.svg">
  <defs
     id="defs7766" />
  <sodipodi:namedview
     id="base"
     pagecolor="#ffffff"
     bordercolor="#666666"
     borderopacity="1.0"
     inkscape:pageopacity="0.0"
     inkscape:pageshadow="2"
     inkscape:zoom="22.4"
     inkscape:cx="12.12374"
     inkscape:cy="11.84087"
     inkscape:document-units="px"
     inkscape:current-layer="layer1"
     showgrid="false"
     fit-margin-top="0"
     fit-margin-left="0"
     fit-margin-right="0"
     fit-margin-bottom="0"
     units="px"
     inkscape:snap-bbox="true"
     inkscape:bbox-nodes="true"
     inkscape:snap-page="true"
     inkscape:window-width="2560"
     inkscape:window-height="1440"
     inkscape:window-x="0"
     inkscape:window-y="1440"
     inkscape:window-maximized="0" />
  <metadata
     id="metadata7769">
    <rdf:RDF>
      <cc:Work
         rdf:about="">
        <dc:format>image/svg+xml</dc:format>
        <dc:type
           rdf:resource="http://purl.org/dc/dcmitype/StillImage" />
        <dc:title></dc:title>
      </cc:Work>
    </rdf:RDF>
  </metadata>
  <g
     inkscape:label="Layer 1"
     inkscape:groupmode="layer"
     id="layer1"
     transform="translate(-224.33811,-536.35004)">
    <path
       inkscape:connector-curvature="0"
       id="path6800"
       style="fill:#ffffff;fill-opacity:1;fill-rule:evenodd;stroke:none"
       d="m 234.33728,536.59681 c -5.52138,0 -9.99915,4.47714 -9.99915,10.00037 0,4.4176 2.86506,8.16603 6.83881,9.48899 0.50032,0.0915 0.68265,-0.21732 0.68265,-0.48252 0,-0.23758 -0.009,-0.8662 -0.0135,-1.7005 -2.78158,0.60408 -3.36846,-1.34074 -3.36846,-1.34074 -0.45489,-1.15536 -1.11054,-1.46292 -1.11054,-1.46292 -0.90796,-0.62003 0.0688,-0.60776 0.0688,-0.60776 1.00373,0.0706 1.53167,1.03073 1.53167,1.03073 0.89199,1.52799 2.34078,1.08661 2.91049,0.83061 0.0909,-0.64582 0.3493,-1.08659 0.63477,-1.33646 -2.22047,-0.25292 -4.55512,-1.11053 -4.55512,-4.94248 0,-1.09211 0.38983,-1.98411 1.0295,-2.68334 -0.10313,-0.25291 -0.4463,-1.26953 0.0982,-2.6465 0,0 0.83919,-0.26888 2.74964,1.02459 0.79745,-0.22161 1.65322,-0.33212 2.50347,-0.33641 0.84964,0.004 1.70479,0.1148 2.50347,0.33641 1.90922,-1.29347 2.74718,-1.02459 2.74718,-1.02459 0.54576,1.37697 0.20259,2.39359 0.10003,2.6465 0.64089,0.69923 1.02766,1.59123 1.02766,2.68334 0,3.84177 -2.33833,4.68711 -4.56556,4.9345 0.35852,0.30879 0.67837,0.91901 0.67837,1.85213 0,1.33646 -0.0124,2.41507 -0.0124,2.74289 0,0.26767 0.18048,0.5789 0.68755,0.48128 3.9707,-1.32539 6.83329,-5.07077 6.83329,-9.48775 0,-5.52323 -4.47775,-10.00037 -10.00098,-10.00037" />
  </g>
</svg>
